Did not see this here at this quality so enjoy. 				

								

								

All credit to the original uploader. 				

								

								

I remuxed this with an older version of MKV Merge so it will 

be more compatible.						

								

								

								

TTLTTLTTLTTLTTLTTLTTLTTLTTLTTLTTLTTLTTLTTLTTL			

								

								

								

								

Damages_S05_E09_720p.HDTV.x264_TTL.mkv
Format                           : Matroska
File size                        : 963 MiB
Duration                         : 52mn 44s
Overall bit rate                 : 2 554 Kbps
Encoded date                     : UTC 2012-09-08 13:34:12
Writing application              : mkvmerge v2.4.0 ('Fumbling Towards Ecstasy') built on 

Oct 11 2008 20:13:15
Writing library                  : libebml v0.7.7 + libmatroska v0.8.1

Video
ID                               : 1
Format                           : AVC
Format/Info                      : Advanced Video Codec
Format profile                   : High@L4.1
Format settings, CABAC           : Yes
Format settings, ReFrames        : 5 frames
Muxing mode                      : Container profile=Unknown@4.1
Codec ID                         : V_MPEG4/ISO/AVC
Duration                         : 52mn 41s
Bit rate                         : 2 119 Kbps
Width                            : 1 280 pixels
Height                           : 720 pixels
Display aspect ratio             : 16:9
Frame rate                       : 23.976 fps
Resolution                       : 8 bits
Colorimetry                      : 4:2:0
Scan type                        : Progressive
Bits/(Pixel*Frame)               : 0.096
Stream size                      : 799 MiB (83%)
Writing library                  : x264 core 125 r2208 d9d2288

Audio
ID                               : 2
Format                           : AC-3
Format/Info                      : Audio Coding 3
Codec ID                         : A_AC3
Duration                         : 52mn 44s
Bit rate mode                    : Constant
Bit rate                         : 384 Kbps
Channel(s)                       : 6 channels
Channel positions                : Front: L C R, Surround: L R, LFE
Sampling rate                    : 48.0 KHz
Stream size                      : 145 MiB (15%)

